<mxfile host="app.diagrams.net" modified="2021-12-10T05:33:28.229Z" agent="5.0 (Macintosh; Intel Mac OS X 10_15_7) AppleWebKit/537.36 (KHTML, like Gecko) Chrome/96.0.4664.55 Safari/537.36" etag="Rnkxy5ZyeJ4rKMQQ1nWq" version="15.9.4" type="github">
  <diagram id="kgpKYQtTHZ0yAKxKKP6v" name="Page-1">
    <mxGraphModel dx="1371" dy="822" grid="1" gridSize="10" guides="1" tooltips="1" connect="1" arrows="1" fold="1" page="1" pageScale="1" pageWidth="850" pageHeight="1100" math="0" shadow="0">
      <root>
        <mxCell id="0" />
        <mxCell id="1" parent="0" />
        <mxCell id="3nuBFxr9cyL0pnOWT2aG-1" value="Veri Demo" style="shape=table;childLayout=tableLayout;rowLines=0;columnLines=0;startSize=40;html=1;whiteSpace=wrap;collapsible=0;recursiveResize=0;expand=0;fontStyle=1" parent="1" vertex="1">
          <mxGeometry x="20" y="120" width="2000" height="710" as="geometry" />
        </mxCell>
        <mxCell id="3nuBFxr9cyL0pnOWT2aG-3" value="Client&lt;br&gt;" style="swimlane;horizontal=0;points=[[0,0.5],[1,0.5]];portConstraint=eastwest;startSize=40;html=1;whiteSpace=wrap;collapsible=0;recursiveResize=0;expand=0;" parent="3nuBFxr9cyL0pnOWT2aG-1" vertex="1">
          <mxGeometry y="40" width="2000" height="170" as="geometry" />
        </mxCell>
        <mxCell id="3nuBFxr9cyL0pnOWT2aG-4" value="Inputs contract address" style="swimlane;connectable=0;startSize=40;html=1;whiteSpace=wrap;collapsible=0;recursiveResize=0;expand=0;" parent="3nuBFxr9cyL0pnOWT2aG-3" vertex="1">
          <mxGeometry x="40" width="687" height="170" as="geometry">
            <mxRectangle width="687" height="170" as="alternateBounds" />
          </mxGeometry>
        </mxCell>
        <mxCell id="3nuBFxr9cyL0pnOWT2aG-5" style="edgeStyle=orthogonalEdgeStyle;rounded=0;orthogonalLoop=1;jettySize=auto;html=1;" parent="3nuBFxr9cyL0pnOWT2aG-4" source="3nuBFxr9cyL0pnOWT2aG-6" target="3nuBFxr9cyL0pnOWT2aG-7" edge="1">
          <mxGeometry relative="1" as="geometry">
            <Array as="points">
              <mxPoint x="105" y="68" />
            </Array>
          </mxGeometry>
        </mxCell>
        <mxCell id="3nuBFxr9cyL0pnOWT2aG-6" value="Start" style="rounded=1;whiteSpace=wrap;html=1;arcSize=50;" parent="3nuBFxr9cyL0pnOWT2aG-4" vertex="1">
          <mxGeometry x="60" y="48" width="90" height="40" as="geometry" />
        </mxCell>
        <mxCell id="3nuBFxr9cyL0pnOWT2aG-7" value="Set Input Type" style="rhombus;whiteSpace=wrap;html=1;" parent="3nuBFxr9cyL0pnOWT2aG-4" vertex="1">
          <mxGeometry x="50" y="100" width="110" height="70" as="geometry" />
        </mxCell>
        <mxCell id="SVtFRBPqZHue9GfBipMF-35" value="Address confirmed" style="whiteSpace=wrap;html=1;" parent="3nuBFxr9cyL0pnOWT2aG-4" vertex="1">
          <mxGeometry x="240" y="115" width="120" height="40" as="geometry" />
        </mxCell>
        <mxCell id="3nuBFxr9cyL0pnOWT2aG-8" value="Input Wallet Address" style="swimlane;connectable=0;startSize=40;html=1;whiteSpace=wrap;collapsible=0;recursiveResize=0;expand=0;" parent="3nuBFxr9cyL0pnOWT2aG-3" vertex="1">
          <mxGeometry x="727" width="868" height="170" as="geometry">
            <mxRectangle width="868" height="170" as="alternateBounds" />
          </mxGeometry>
        </mxCell>
        <mxCell id="pRKq8YZs8NUOeg1YThf3-2" value="Start" style="rounded=1;whiteSpace=wrap;html=1;arcSize=50;" vertex="1" parent="3nuBFxr9cyL0pnOWT2aG-8">
          <mxGeometry x="23" y="48" width="90" height="40" as="geometry" />
        </mxCell>
        <mxCell id="3nuBFxr9cyL0pnOWT2aG-11" value="Get Token verification" style="swimlane;connectable=0;startSize=40;html=1;whiteSpace=wrap;collapsible=0;recursiveResize=0;expand=0;" parent="3nuBFxr9cyL0pnOWT2aG-3" vertex="1">
          <mxGeometry x="1595" width="405" height="170" as="geometry">
            <mxRectangle width="405" height="170" as="alternateBounds" />
          </mxGeometry>
        </mxCell>
        <mxCell id="3nuBFxr9cyL0pnOWT2aG-12" style="edgeStyle=orthogonalEdgeStyle;rounded=0;orthogonalLoop=1;jettySize=auto;html=1;" parent="3nuBFxr9cyL0pnOWT2aG-11" edge="1">
          <mxGeometry relative="1" as="geometry">
            <mxPoint x="65" y="100" as="sourcePoint" />
          </mxGeometry>
        </mxCell>
        <mxCell id="3nuBFxr9cyL0pnOWT2aG-15" value="VERI FE" style="swimlane;horizontal=0;points=[[0,0.5],[1,0.5]];portConstraint=eastwest;startSize=40;html=1;whiteSpace=wrap;collapsible=0;recursiveResize=0;expand=0;" parent="3nuBFxr9cyL0pnOWT2aG-1" vertex="1">
          <mxGeometry y="210" width="2000" height="300" as="geometry" />
        </mxCell>
        <mxCell id="3nuBFxr9cyL0pnOWT2aG-16" value="" style="swimlane;connectable=0;startSize=0;html=1;whiteSpace=wrap;collapsible=0;recursiveResize=0;expand=0;" parent="3nuBFxr9cyL0pnOWT2aG-15" vertex="1">
          <mxGeometry x="40" width="687" height="300" as="geometry">
            <mxRectangle width="687" height="300" as="alternateBounds" />
          </mxGeometry>
        </mxCell>
        <mxCell id="SVtFRBPqZHue9GfBipMF-66" style="edgeStyle=orthogonalEdgeStyle;rounded=0;orthogonalLoop=1;jettySize=auto;html=1;entryX=0;entryY=0.5;entryDx=0;entryDy=0;" parent="3nuBFxr9cyL0pnOWT2aG-16" source="SVtFRBPqZHue9GfBipMF-17" target="SVtFRBPqZHue9GfBipMF-65" edge="1">
          <mxGeometry relative="1" as="geometry" />
        </mxCell>
        <mxCell id="SVtFRBPqZHue9GfBipMF-17" value="Address Typed in" style="shape=parallelogram;perimeter=parallelogramPerimeter;whiteSpace=wrap;html=1;fixedSize=1;" parent="3nuBFxr9cyL0pnOWT2aG-16" vertex="1">
          <mxGeometry x="140" y="40" width="130" height="30" as="geometry" />
        </mxCell>
        <mxCell id="SVtFRBPqZHue9GfBipMF-27" value="" style="edgeStyle=orthogonalEdgeStyle;rounded=0;orthogonalLoop=1;jettySize=auto;html=1;startArrow=none;" parent="3nuBFxr9cyL0pnOWT2aG-16" source="SVtFRBPqZHue9GfBipMF-56" target="SVtFRBPqZHue9GfBipMF-23" edge="1">
          <mxGeometry relative="1" as="geometry" />
        </mxCell>
        <mxCell id="SVtFRBPqZHue9GfBipMF-59" value="" style="edgeStyle=orthogonalEdgeStyle;rounded=0;orthogonalLoop=1;jettySize=auto;html=1;" parent="3nuBFxr9cyL0pnOWT2aG-16" source="SVtFRBPqZHue9GfBipMF-18" target="SVtFRBPqZHue9GfBipMF-56" edge="1">
          <mxGeometry relative="1" as="geometry" />
        </mxCell>
        <mxCell id="SVtFRBPqZHue9GfBipMF-18" value="Name Searched" style="shape=parallelogram;perimeter=parallelogramPerimeter;whiteSpace=wrap;html=1;fixedSize=1;" parent="3nuBFxr9cyL0pnOWT2aG-16" vertex="1">
          <mxGeometry x="10" y="40" width="130" height="30" as="geometry" />
        </mxCell>
        <mxCell id="SVtFRBPqZHue9GfBipMF-23" value="Request to BE&amp;nbsp;" style="rounded=0;whiteSpace=wrap;html=1;" parent="3nuBFxr9cyL0pnOWT2aG-16" vertex="1">
          <mxGeometry x="40" y="170" width="70" height="40" as="geometry" />
        </mxCell>
        <mxCell id="SVtFRBPqZHue9GfBipMF-43" value="" style="edgeStyle=orthogonalEdgeStyle;rounded=0;orthogonalLoop=1;jettySize=auto;html=1;" parent="3nuBFxr9cyL0pnOWT2aG-16" source="SVtFRBPqZHue9GfBipMF-39" target="SVtFRBPqZHue9GfBipMF-42" edge="1">
          <mxGeometry relative="1" as="geometry" />
        </mxCell>
        <mxCell id="SVtFRBPqZHue9GfBipMF-39" value="Contract Address saved in state" style="shape=internalStorage;whiteSpace=wrap;html=1;backgroundOutline=1;dx=10;dy=10;" parent="3nuBFxr9cyL0pnOWT2aG-16" vertex="1">
          <mxGeometry x="410" y="90" width="230" height="50" as="geometry" />
        </mxCell>
        <mxCell id="SVtFRBPqZHue9GfBipMF-42" value="Addr saved in localstorage" style="shape=internalStorage;whiteSpace=wrap;html=1;backgroundOutline=1;dx=10;dy=10;" parent="3nuBFxr9cyL0pnOWT2aG-16" vertex="1">
          <mxGeometry x="435" y="170" width="180" height="50" as="geometry" />
        </mxCell>
        <mxCell id="SVtFRBPqZHue9GfBipMF-56" value="Cancel any prev reqs" style="rounded=0;whiteSpace=wrap;html=1;" parent="3nuBFxr9cyL0pnOWT2aG-16" vertex="1">
          <mxGeometry x="40" y="96" width="70" height="40" as="geometry" />
        </mxCell>
        <mxCell id="SVtFRBPqZHue9GfBipMF-65" value="Address shown" style="rounded=0;whiteSpace=wrap;html=1;" parent="3nuBFxr9cyL0pnOWT2aG-16" vertex="1">
          <mxGeometry x="240" y="160" width="120" height="40" as="geometry" />
        </mxCell>
        <mxCell id="3nuBFxr9cyL0pnOWT2aG-18" value="" style="swimlane;connectable=0;startSize=0;html=1;whiteSpace=wrap;collapsible=0;recursiveResize=0;expand=0;" parent="3nuBFxr9cyL0pnOWT2aG-15" vertex="1">
          <mxGeometry x="727" width="868" height="300" as="geometry">
            <mxRectangle width="868" height="300" as="alternateBounds" />
          </mxGeometry>
        </mxCell>
        <mxCell id="3nuBFxr9cyL0pnOWT2aG-19" value="" style="edgeStyle=orthogonalEdgeStyle;rounded=0;orthogonalLoop=1;jettySize=auto;html=1;" parent="3nuBFxr9cyL0pnOWT2aG-18" edge="1">
          <mxGeometry relative="1" as="geometry">
            <mxPoint x="240" y="40" as="sourcePoint" />
          </mxGeometry>
        </mxCell>
        <mxCell id="3nuBFxr9cyL0pnOWT2aG-23" value="" style="swimlane;connectable=0;startSize=0;html=1;whiteSpace=wrap;collapsible=0;recursiveResize=0;expand=0;" parent="3nuBFxr9cyL0pnOWT2aG-15" vertex="1">
          <mxGeometry x="1595" width="405" height="300" as="geometry">
            <mxRectangle width="405" height="300" as="alternateBounds" />
          </mxGeometry>
        </mxCell>
        <mxCell id="SVtFRBPqZHue9GfBipMF-31" value="VERI BE&lt;br&gt;" style="swimlane;horizontal=0;points=[[0,0.5],[1,0.5]];portConstraint=eastwest;startSize=40;html=1;whiteSpace=wrap;collapsible=0;recursiveResize=0;expand=0;" parent="3nuBFxr9cyL0pnOWT2aG-1" vertex="1">
          <mxGeometry y="510" width="2000" height="200" as="geometry" />
        </mxCell>
        <mxCell id="SVtFRBPqZHue9GfBipMF-32" style="swimlane;connectable=0;startSize=0;html=1;whiteSpace=wrap;collapsible=0;recursiveResize=0;expand=0;" parent="SVtFRBPqZHue9GfBipMF-31" vertex="1">
          <mxGeometry x="40" width="687" height="200" as="geometry">
            <mxRectangle width="687" height="200" as="alternateBounds" />
          </mxGeometry>
        </mxCell>
        <mxCell id="SVtFRBPqZHue9GfBipMF-75" value="" style="edgeStyle=orthogonalEdgeStyle;rounded=0;orthogonalLoop=1;jettySize=auto;html=1;entryX=0;entryY=0.5;entryDx=0;entryDy=0;" parent="SVtFRBPqZHue9GfBipMF-32" source="SVtFRBPqZHue9GfBipMF-44" target="SVtFRBPqZHue9GfBipMF-74" edge="1">
          <mxGeometry relative="1" as="geometry" />
        </mxCell>
        <mxCell id="SVtFRBPqZHue9GfBipMF-44" value="Reqs to APIs" style="rounded=0;whiteSpace=wrap;html=1;" parent="SVtFRBPqZHue9GfBipMF-32" vertex="1">
          <mxGeometry x="20" y="20" width="110" height="60" as="geometry" />
        </mxCell>
        <mxCell id="SVtFRBPqZHue9GfBipMF-67" value="Format and send back reponse&lt;br&gt;" style="whiteSpace=wrap;html=1;rounded=0;" parent="SVtFRBPqZHue9GfBipMF-32" vertex="1">
          <mxGeometry x="460" y="80" width="190" height="40" as="geometry" />
        </mxCell>
        <mxCell id="SVtFRBPqZHue9GfBipMF-82" value="" style="edgeStyle=orthogonalEdgeStyle;rounded=0;orthogonalLoop=1;jettySize=auto;html=1;" parent="SVtFRBPqZHue9GfBipMF-32" source="SVtFRBPqZHue9GfBipMF-70" target="SVtFRBPqZHue9GfBipMF-80" edge="1">
          <mxGeometry relative="1" as="geometry" />
        </mxCell>
        <mxCell id="SVtFRBPqZHue9GfBipMF-70" value="Request to Etherscan" style="whiteSpace=wrap;html=1;rounded=0;" parent="SVtFRBPqZHue9GfBipMF-32" vertex="1">
          <mxGeometry x="170" y="50" width="130" height="40" as="geometry" />
        </mxCell>
        <mxCell id="SVtFRBPqZHue9GfBipMF-71" value="" style="edgeStyle=orthogonalEdgeStyle;rounded=0;orthogonalLoop=1;jettySize=auto;html=1;" parent="SVtFRBPqZHue9GfBipMF-32" source="SVtFRBPqZHue9GfBipMF-44" target="SVtFRBPqZHue9GfBipMF-70" edge="1">
          <mxGeometry relative="1" as="geometry" />
        </mxCell>
        <mxCell id="SVtFRBPqZHue9GfBipMF-83" value="" style="edgeStyle=orthogonalEdgeStyle;rounded=0;orthogonalLoop=1;jettySize=auto;html=1;" parent="SVtFRBPqZHue9GfBipMF-32" source="SVtFRBPqZHue9GfBipMF-74" target="SVtFRBPqZHue9GfBipMF-80" edge="1">
          <mxGeometry relative="1" as="geometry" />
        </mxCell>
        <mxCell id="SVtFRBPqZHue9GfBipMF-74" value="Request to Openseas" style="whiteSpace=wrap;html=1;rounded=0;" parent="SVtFRBPqZHue9GfBipMF-32" vertex="1">
          <mxGeometry x="170" y="110" width="130" height="40" as="geometry" />
        </mxCell>
        <mxCell id="SVtFRBPqZHue9GfBipMF-81" value="" style="edgeStyle=orthogonalEdgeStyle;rounded=0;orthogonalLoop=1;jettySize=auto;html=1;" parent="SVtFRBPqZHue9GfBipMF-32" source="SVtFRBPqZHue9GfBipMF-80" target="SVtFRBPqZHue9GfBipMF-67" edge="1">
          <mxGeometry relative="1" as="geometry" />
        </mxCell>
        <mxCell id="SVtFRBPqZHue9GfBipMF-80" value="Await response" style="strokeWidth=2;html=1;shape=mxgraph.flowchart.delay;whiteSpace=wrap;" parent="SVtFRBPqZHue9GfBipMF-32" vertex="1">
          <mxGeometry x="315" y="85" width="100" height="30" as="geometry" />
        </mxCell>
        <mxCell id="SVtFRBPqZHue9GfBipMF-33" style="swimlane;connectable=0;startSize=0;html=1;whiteSpace=wrap;collapsible=0;recursiveResize=0;expand=0;" parent="SVtFRBPqZHue9GfBipMF-31" vertex="1">
          <mxGeometry x="727" width="868" height="200" as="geometry">
            <mxRectangle width="868" height="200" as="alternateBounds" />
          </mxGeometry>
        </mxCell>
        <mxCell id="SVtFRBPqZHue9GfBipMF-34" style="swimlane;connectable=0;startSize=0;html=1;whiteSpace=wrap;collapsible=0;recursiveResize=0;expand=0;" parent="SVtFRBPqZHue9GfBipMF-31" vertex="1">
          <mxGeometry x="1595" width="405" height="200" as="geometry">
            <mxRectangle width="405" height="200" as="alternateBounds" />
          </mxGeometry>
        </mxCell>
        <mxCell id="3nuBFxr9cyL0pnOWT2aG-25" value="" style="edgeStyle=orthogonalEdgeStyle;rounded=0;orthogonalLoop=1;jettySize=auto;html=1;" parent="3nuBFxr9cyL0pnOWT2aG-1" edge="1">
          <mxGeometry relative="1" as="geometry">
            <mxPoint x="365" y="200" as="sourcePoint" />
          </mxGeometry>
        </mxCell>
        <mxCell id="3nuBFxr9cyL0pnOWT2aG-27" value="" style="edgeStyle=orthogonalEdgeStyle;rounded=0;orthogonalLoop=1;jettySize=auto;html=1;" parent="3nuBFxr9cyL0pnOWT2aG-1" edge="1">
          <mxGeometry relative="1" as="geometry">
            <mxPoint x="495" y="200" as="sourcePoint" />
          </mxGeometry>
        </mxCell>
        <mxCell id="SVtFRBPqZHue9GfBipMF-11" style="edgeStyle=orthogonalEdgeStyle;rounded=0;orthogonalLoop=1;jettySize=auto;html=1;exitX=0.5;exitY=1;exitDx=0;exitDy=0;entryX=0.5;entryY=0;entryDx=0;entryDy=0;" parent="3nuBFxr9cyL0pnOWT2aG-1" source="3nuBFxr9cyL0pnOWT2aG-7" target="SVtFRBPqZHue9GfBipMF-17" edge="1">
          <mxGeometry relative="1" as="geometry">
            <mxPoint x="100" y="237.5" as="targetPoint" />
          </mxGeometry>
        </mxCell>
        <mxCell id="SVtFRBPqZHue9GfBipMF-41" style="edgeStyle=orthogonalEdgeStyle;rounded=0;orthogonalLoop=1;jettySize=auto;html=1;exitX=1;exitY=0.5;exitDx=0;exitDy=0;entryX=0.5;entryY=0;entryDx=0;entryDy=0;" parent="3nuBFxr9cyL0pnOWT2aG-1" source="SVtFRBPqZHue9GfBipMF-35" target="SVtFRBPqZHue9GfBipMF-39" edge="1">
          <mxGeometry relative="1" as="geometry" />
        </mxCell>
        <mxCell id="SVtFRBPqZHue9GfBipMF-58" value="" style="edgeStyle=orthogonalEdgeStyle;rounded=0;orthogonalLoop=1;jettySize=auto;html=1;entryX=0.5;entryY=0;entryDx=0;entryDy=0;" parent="3nuBFxr9cyL0pnOWT2aG-1" source="3nuBFxr9cyL0pnOWT2aG-7" target="SVtFRBPqZHue9GfBipMF-18" edge="1">
          <mxGeometry relative="1" as="geometry" />
        </mxCell>
        <mxCell id="SVtFRBPqZHue9GfBipMF-60" style="edgeStyle=orthogonalEdgeStyle;rounded=0;orthogonalLoop=1;jettySize=auto;html=1;entryX=0.5;entryY=0;entryDx=0;entryDy=0;" parent="3nuBFxr9cyL0pnOWT2aG-1" source="SVtFRBPqZHue9GfBipMF-23" target="SVtFRBPqZHue9GfBipMF-44" edge="1">
          <mxGeometry relative="1" as="geometry" />
        </mxCell>
        <mxCell id="SVtFRBPqZHue9GfBipMF-64" value="" style="endArrow=classic;html=1;rounded=0;exitX=0.5;exitY=0;exitDx=0;exitDy=0;entryX=0.5;entryY=1;entryDx=0;entryDy=0;" parent="3nuBFxr9cyL0pnOWT2aG-1" source="SVtFRBPqZHue9GfBipMF-65" target="SVtFRBPqZHue9GfBipMF-35" edge="1">
          <mxGeometry width="50" height="50" relative="1" as="geometry">
            <mxPoint x="420" y="340" as="sourcePoint" />
            <mxPoint x="430" y="320" as="targetPoint" />
            <Array as="points">
              <mxPoint x="340" y="320" />
            </Array>
          </mxGeometry>
        </mxCell>
        <mxCell id="SVtFRBPqZHue9GfBipMF-84" style="edgeStyle=orthogonalEdgeStyle;rounded=0;orthogonalLoop=1;jettySize=auto;html=1;entryX=0.5;entryY=1;entryDx=0;entryDy=0;" parent="3nuBFxr9cyL0pnOWT2aG-1" source="SVtFRBPqZHue9GfBipMF-67" target="SVtFRBPqZHue9GfBipMF-65" edge="1">
          <mxGeometry relative="1" as="geometry">
            <Array as="points">
              <mxPoint x="595" y="530" />
              <mxPoint x="340" y="530" />
            </Array>
          </mxGeometry>
        </mxCell>
      </root>
    </mxGraphModel>
  </diagram>
</mxfile>
